<svg xmlns="http://www.w3.org/2000/svg" xmlns:xlink="http://www.w3.org/1999/xlink" version="1.1"  x="0px" y="0px" width="32" height="32" viewBox="0 0 64 64" style="enable-background:new 0 0 64 64;" xml:space="preserve" viewbox="0 0 32 32">

<g>
	<path id="579155342_shock_x5F_color_same" class="stshockcolor" d="M64,20.335v33.771c0,2.729-1.109,5.205-2.9,6.994c-1.789,1.795-4.26,2.9-6.994,2.9H9.895   C4.43,64,0,59.57,0,54.105V9.9c0-2.735,1.11-5.21,2.9-7C4.69,1.105,7.16,0,9.895,0h33.35L64,20.335z" style="fill: rgb(112, 116, 248);" data-st="fill:#E8492B;;"></path>
	<path class="st4" d="M61.1,61.1c-1.789,1.795-4.26,2.9-6.994,2.9H9.895C4.43,64,0,59.57,0,54.105V9.9c0-2.735,1.11-5.21,2.9-7   L61.1,61.1z" style="opacity:0.1;fill:#FFFFFF;;"></path>
	<polygon class="st1" points="53.102,20.291 64,29.281 64,20.291  " style="opacity:0.05;;"></polygon>
	<path class="st2" d="M64,20.3H53.102c-5.466,0-9.896-4.432-9.896-9.897V0.009L64,20.3z" style="opacity:0.15;;"></path>
</g>
<path class="st3" d="M49.6,27.409c-0.65-0.65-1.699-0.6-1.699-0.6s-2.351,0-3.201,0c-0.85,0-1.117-0.9-1.117-1.583  c0-6.141-4.755-11.316-11.383-11.316h-7c-6.627,0-11.399,4.772-11.399,11.4v13.4c0,6.628,4.772,11.4,11.399,11.4H38.8  c6.628,0,11.399-4.772,11.399-11.4v-9.4C50.199,29.309,50.25,28.06,49.6,27.409z M24.7,23.009h7.6c1.05,0,1.9,0.851,1.9,1.9  s-0.851,1.9-1.9,1.9h-7.6c-1.049,0-1.9-0.851-1.9-1.9S23.65,23.009,24.7,23.009z M38.9,40.409h-14c-1.16,0-2.1-0.94-2.1-2.1  c0-1.16,0.94-2.1,2.1-2.1h14c1.16,0,2.1,0.939,2.1,2.1C41,39.469,40.061,40.409,38.9,40.409z" style="fill:#FFFFFF;;"></path>
</svg>